<?xml version="1.0" encoding="utf-8"?>
<!-- Generator: Adobe Illustrator 25.0.1, SVG Export Plug-In . SVG Version: 6.00 Build 0)  -->
<svg version="1.1" id="Layer_1" xmlns="http://www.w3.org/2000/svg" xmlns:xlink="http://www.w3.org/1999/xlink" x="0px" y="0px"
	 viewBox="0 0 630 630" style="enable-background:new 0 0 630 630;" xml:space="preserve">
<style type="text/css">
	.st0{fill:#0066FF;}
	.st1{fill:#FFFFFF;}
</style>
<rect class="st0" width="630" height="630"/>
<g>
	<path class="st1" d="M166.4,289.37h184.92v51.93H225.51v94.99h114.42v52.77H225.51v87.39H166.4V289.37z"/>
	<path class="st1" d="M376.23,519.89l48.13-27.87c12.67,20.69,29.13,35.89,58.26,35.89c24.49,0,40.11-12.24,40.11-29.13
		c0-20.27-16.04-27.44-43.06-39.26l-14.78-6.33c-42.64-18.15-70.93-40.95-70.93-89.08c0-44.33,33.78-78.11,86.55-78.11
		c37.58,0,64.6,13.09,84.02,47.29l-46.02,29.55c-10.13-18.15-21.11-25.33-38-25.33c-17.31,0-28.29,10.98-28.29,25.33
		c0,17.73,10.98,24.91,36.31,35.89l14.78,6.33c50.24,21.53,78.53,43.49,78.53,92.88c0,53.2-41.8,82.33-97.95,82.33
		C429.01,580.27,393.54,554.09,376.23,519.89z"/>
</g>
</svg>
