<svg version="1.1" id="Layer_1" xmlns="http://www.w3.org/2000/svg" x="0" y="0" viewBox="0 0 630 630" xml:space="preserve"><style>.st1{fill:#fff}</style><path fill="#06f" d="M0 0h630v630H0z"/><path class="st1" d="M116.28 171.23H301.2v51.93H175.39v94.99h114.42v52.77H175.39v87.39h-59.11V171.23zM326.11 401.75l48.13-27.87c12.67 20.69 29.13 35.89 58.26 35.89 24.49 0 40.11-12.24 40.11-29.13 0-20.27-16.04-27.44-43.06-39.26l-14.78-6.33c-42.64-18.15-70.93-40.95-70.93-89.08 0-44.33 33.78-78.11 86.55-78.11 37.58 0 64.6 13.09 84.02 47.29l-46.02 29.55c-10.13-18.15-21.11-25.33-38-25.33-17.31 0-28.29 10.98-28.29 25.33 0 17.73 10.98 24.91 36.31 35.89l14.78 6.33c50.24 21.53 78.53 43.49 78.53 92.88 0 53.2-41.8 82.33-97.95 82.33-54.88 0-90.35-26.18-107.66-60.38z"/></svg>
